<svg xmlns="http://www.w3.org/2000/svg" width="216.00" height="24.00" viewBox="0 0 216.00 24.00" fill="none" shape-rendering="crispEdges">
<rect x="0.00" y="0.00" width="4.8" height="4.8" fill="#fff"/>
<rect x="19.20" y="0.00" width="4.8" height="4.8" fill="#fff"/>
<rect x="105.60" y="0.00" width="4.8" height="4.8" fill="#fff"/>
<rect x="120.00" y="0.00" width="4.8" height="4.8" fill="#fff"/>
<rect x="172.80" y="0.00" width="4.8" height="4.8" fill="#fff"/>
<rect x="187.20" y="0.00" width="4.8" height="4.8" fill="#fff"/>
<rect x="4.80" y="4.80" width="4.8" height="4.8" fill="#fff"/>
<rect x="14.40" y="4.80" width="4.8" height="4.8" fill="#fff"/>
<rect x="28.80" y="4.80" width="4.8" height="4.8" fill="#fff"/>
<rect x="43.20" y="4.80" width="4.8" height="4.8" fill="#fff"/>
<rect x="57.60" y="4.80" width="4.8" height="4.8" fill="#fff"/>
<rect x="62.40" y="4.80" width="4.8" height="4.8" fill="#fff"/>
<rect x="76.80" y="4.80" width="4.8" height="4.8" fill="#fff"/>
<rect x="86.40" y="4.80" width="4.8" height="4.8" fill="#fff"/>
<rect x="91.20" y="4.80" width="4.8" height="4.8" fill="#fff"/>
<rect x="105.60" y="4.80" width="4.8" height="4.8" fill="#fff"/>
<rect x="120.00" y="4.80" width="4.8" height="4.8" fill="#fff"/>
<rect x="129.60" y="4.80" width="4.8" height="4.8" fill="#fff"/>
<rect x="139.20" y="4.80" width="4.8" height="4.8" fill="#fff"/>
<rect x="144.00" y="4.80" width="4.8" height="4.8" fill="#fff"/>
<rect x="172.80" y="4.80" width="4.8" height="4.8" fill="#fff"/>
<rect x="187.20" y="4.80" width="4.8" height="4.8" fill="#fff"/>
<rect x="201.60" y="4.80" width="4.8" height="4.8" fill="#fff"/>
<rect x="206.40" y="4.80" width="4.8" height="4.8" fill="#fff"/>
<rect x="9.60" y="9.60" width="4.8" height="4.8" fill="#fff"/>
<rect x="28.80" y="9.60" width="4.8" height="4.8" fill="#fff"/>
<rect x="43.20" y="9.60" width="4.8" height="4.8" fill="#fff"/>
<rect x="52.80" y="9.60" width="4.8" height="4.8" fill="#fff"/>
<rect x="67.20" y="9.60" width="4.8" height="4.8" fill="#fff"/>
<rect x="76.80" y="9.60" width="4.8" height="4.8" fill="#fff"/>
<rect x="81.60" y="9.60" width="4.8" height="4.8" fill="#fff"/>
<rect x="91.20" y="9.60" width="4.8" height="4.8" fill="#fff"/>
<rect x="105.60" y="9.60" width="4.8" height="4.8" fill="#fff"/>
<rect x="120.00" y="9.60" width="4.8" height="4.8" fill="#fff"/>
<rect x="129.60" y="9.60" width="4.8" height="4.8" fill="#fff"/>
<rect x="134.40" y="9.60" width="4.8" height="4.8" fill="#fff"/>
<rect x="144.00" y="9.60" width="4.8" height="4.8" fill="#fff"/>
<rect x="172.80" y="9.60" width="4.8" height="4.8" fill="#fff"/>
<rect x="177.60" y="9.60" width="4.8" height="4.8" fill="#fff"/>
<rect x="182.40" y="9.60" width="4.8" height="4.8" fill="#fff"/>
<rect x="187.20" y="9.60" width="4.8" height="4.8" fill="#fff"/>
<rect x="196.80" y="9.60" width="4.8" height="4.8" fill="#fff"/>
<rect x="211.20" y="9.60" width="4.8" height="4.8" fill="#fff"/>
<rect x="4.80" y="14.40" width="4.8" height="4.8" fill="#fff"/>
<rect x="14.40" y="14.40" width="4.8" height="4.8" fill="#fff"/>
<rect x="28.80" y="14.40" width="4.8" height="4.8" fill="#fff"/>
<rect x="33.60" y="14.40" width="4.8" height="4.8" fill="#fff"/>
<rect x="43.20" y="14.40" width="4.8" height="4.8" fill="#fff"/>
<rect x="52.80" y="14.40" width="4.8" height="4.8" fill="#fff"/>
<rect x="57.60" y="14.40" width="4.8" height="4.8" fill="#fff"/>
<rect x="62.40" y="14.40" width="4.8" height="4.8" fill="#fff"/>
<rect x="67.20" y="14.40" width="4.8" height="4.8" fill="#fff"/>
<rect x="76.80" y="14.40" width="4.8" height="4.8" fill="#fff"/>
<rect x="91.20" y="14.40" width="4.8" height="4.8" fill="#fff"/>
<rect x="105.60" y="14.40" width="4.8" height="4.8" fill="#fff"/>
<rect x="120.00" y="14.40" width="4.8" height="4.8" fill="#fff"/>
<rect x="129.60" y="14.40" width="4.8" height="4.8" fill="#fff"/>
<rect x="144.00" y="14.40" width="4.8" height="4.8" fill="#fff"/>
<rect x="172.80" y="14.40" width="4.8" height="4.8" fill="#fff"/>
<rect x="187.20" y="14.40" width="4.8" height="4.8" fill="#fff"/>
<rect x="196.80" y="14.40" width="4.8" height="4.8" fill="#fff"/>
<rect x="201.60" y="14.40" width="4.8" height="4.8" fill="#fff"/>
<rect x="206.40" y="14.40" width="4.8" height="4.8" fill="#fff"/>
<rect x="211.20" y="14.40" width="4.8" height="4.8" fill="#fff"/>
<rect x="0.00" y="19.20" width="4.8" height="4.8" fill="#fff"/>
<rect x="19.20" y="19.20" width="4.8" height="4.8" fill="#fff"/>
<rect x="28.80" y="19.20" width="4.8" height="4.8" fill="#fff"/>
<rect x="38.40" y="19.20" width="4.8" height="4.8" fill="#fff"/>
<rect x="43.20" y="19.20" width="4.8" height="4.8" fill="#fff"/>
<rect x="52.80" y="19.20" width="4.8" height="4.8" fill="#fff"/>
<rect x="67.20" y="19.20" width="4.8" height="4.8" fill="#fff"/>
<rect x="76.80" y="19.20" width="4.8" height="4.8" fill="#fff"/>
<rect x="91.20" y="19.20" width="4.8" height="4.8" fill="#fff"/>
<rect x="100.80" y="19.20" width="4.8" height="4.8" fill="#fff"/>
<rect x="105.60" y="19.20" width="4.8" height="4.8" fill="#fff"/>
<rect x="120.00" y="19.20" width="4.8" height="4.8" fill="#fff"/>
<rect x="129.60" y="19.20" width="4.8" height="4.8" fill="#fff"/>
<rect x="144.00" y="19.20" width="4.8" height="4.8" fill="#fff"/>
<rect x="158.40" y="19.20" width="4.8" height="4.8" fill="#fff"/>
<rect x="172.80" y="19.20" width="4.8" height="4.8" fill="#fff"/>
<rect x="187.20" y="19.20" width="4.8" height="4.8" fill="#fff"/>
<rect x="196.80" y="19.20" width="4.8" height="4.8" fill="#fff"/>
</svg>
