<svg width="119" height="46" viewBox="0 0 119 46" fill="none" xmlns="http://www.w3.org/2000/svg">
<rect y="5" width="5" height="36" fill="white"/>
<rect width="109" height="46" transform="translate(5)" fill="white"/>
<path d="M19 24H20.3333V26.6667H19V24ZM24.3333 17.3333H25.6667V26.6667H24.3333V17.3333ZM24.3333 26.6667V28H20.3333V26.6667H24.3333ZM32.3333 20V21.3333H28.3333V20H32.3333ZM27 21.3333H28.3333V26.6667H27V21.3333ZM32.3333 21.3333H33.6667V26.6667H32.3333V21.3333ZM32.3333 26.6667V28H28.3333V26.6667H32.3333ZM37.6667 17.3333H39V18.6667H37.6667V17.3333ZM39 26.6667H41.6667V28H35V26.6667H37.6667V21.3333H35V20H39V26.6667ZM45.6667 20H48.3333V21.3333H45.6667V20ZM43 20H44.3333V21.3333H45.6667V22.6667H44.3333V28H43V20ZM48.3333 21.3333H49.6667V28H48.3333V21.3333ZM61.6667 20H64.3333V21.3333H61.6667V20ZM59 20H60.3333V21.3333H61.6667V22.6667H60.3333V28H59V20ZM64.3333 21.3333H65.6667V28H64.3333V21.3333ZM72.3333 20V21.3333H68.3333V20H72.3333ZM67 21.3333H68.3333V26.6667H67V21.3333ZM72.3333 21.3333H73.6667V26.6667H72.3333V21.3333ZM72.3333 26.6667V28H68.3333V26.6667H72.3333ZM75 20H76.3333V25.3333H75V20ZM77.6667 20H79V25.3333H77.6667V20ZM80.3333 20H81.6667V25.3333H80.3333V20ZM76.3333 25.3333H77.6667V28H76.3333V25.3333ZM79 25.3333H80.3333V28H79V25.3333Z" fill="black"/>
<path d="M90.8333 17.1667H92.6667V19H90.8333V17.1667ZM92.6667 19H94.5V20.8333H92.6667V19ZM94.5 20.8333H96.3333V22.6667H94.5V20.8333ZM96.3333 22.6667H98.1667V24.5H96.3333V22.6667ZM94.5 24.5H96.3333V26.3333H94.5V24.5ZM92.6667 26.3333H94.5V28.1667H92.6667V26.3333ZM90.8333 28.1667H92.6667V30H90.8333V28.1667Z" fill="black"/>
<rect x="114" y="5" width="5" height="36" fill="white"/>
</svg>
